<svg xmlns="http://www.w3.org/2000/svg">

<symbol id="delete" viewBox="0 0 23 23">
    <g stroke="#949494" fill="none" fill-rule="evenodd" stroke-linecap="square">
      <path d="M1.5 21.5l20-20M21.5 21.5l-20-20"/>
    </g>
  </symbol>

  <symbol id="launch" viewBox="0 0 16 16">
    <path d="M9.3 2.4H14v4.7h-1.3V4.7l-6.5 6.5-.9-.9 6.5-6.5H9.4V2.4zm3.4 10.7V8.4H14v4.7c0 .4-.1.7-.4.9-.3.3-.6.4-.9.4H3.4c-.4 0-.7-.1-1-.4s-.4-.6-.4-.9V3.8c0-.4.1-.7.4-.9s.6-.4 1-.4h4.7v1.3H3.4v9.3h9.3z" fill="#fff"/>
  </symbol>
  
  <symbol id="chevron-right" viewBox="0 0 16 16">
    <path fill="currentColor" d="M6.2 4.4l4 4-4 4-1-.9 3.1-3.1-3.1-3.1z"/>
  </symbol>

  <symbol id="chevron-left" viewBox="0 0 16 16">
     <path fill="currentColor" d="M9.8 4.4l-4 4 4 4 1-.9-3.1-3.1 3.1-3.1z"/>
  </symbol>

  <symbol id="arrow-right" viewBox="0 0 12 7">
    <g fill="currentColor" fill-rule="nonzero">
      <path d="M8.593.442a.7.7 0 01.985.1l2.292 2.815-2.292 2.815a.7.7 0 01-1.086-.884l1.572-1.931-1.572-1.93a.7.7 0 01.1-.985z"/>
      <path d="M11.2 2.657v1.4H0v-1.4z"/>
    </g>
  </symbol>

  <symbol id="arrows" viewBox="0 0 7 12">
    <path d="M3.1 10.1L5.2 8l.9.9L3 12-.1 8.9.8 8l2.3 2.1zm0-8.2L1 4l-.9-.9L3.2 0l3.1 3.1-.9.9-2.3-2.1z" fill="currentColor"/>
  </symbol>

  <symbol id="arrow-rounded-right" viewBox="0 0 12 11">
    <path d="M7.3 3.4c-2.2.3-3.9 1.2-5.2 2.7C1 7.3.3 8.9-.1 10.8c.8-1.2 1.8-2 3-2.6 1.2-.5 2.6-.8 4.3-.8v2.7l4.7-4.7L7.2.7v2.7z" fill="currentColor"/>
  </symbol>

  <symbol id="check" viewBox="0 0 18 18">
    <g fill="none" fill-rule="evenodd">
      <circle fill="currentColor" cx="8.526" cy="8.526" r="8.526"/>
      <path d="M7.788 9.212l3.153-3.528 1.375 1.565-4.528 5.067L4.9 9.212c-.26-.545-.209-1.024.153-1.436.363-.412.77-.455 1.221-.129l1.514 1.565z" fill="#FFF"/>
    </g>
  </symbol>

  <symbol id="pdf" viewBox="0 0 24 24">
    <g fill="none" fill-rule="evenodd">
      <path d="M0 0h24v24H0z"/>
      <g fill="currentColor" fill-rule="nonzero">
        <path d="M5 3h10v4h4v1h2V5.586L16.414 1H5c-1.103 0-2 .898-2 2v5h2V3zM19 21H5v-1H3v1c0 1.103.897 2 2 2h14c1.103 0 2-.897 2-2v-1h-2v1zM9 10v8h2c2.206 0 4-1.794 4-4s-1.794-4-4-4H9zm4 4c0 1.103-.897 2-2 2v-4c1.103 0 2 .898 2 2zM22 12v-2h-4c-1.103 0-2 .898-2 2v6h2v-3h3v-2h-3v-1h4zM4 16h1c1.654 0 3-1.346 3-3s-1.346-3-3-3H2v8h2v-2zm0-4h1a1.001 1.001 0 010 2H4v-2z"/>
      </g>
    </g>
  </symbol>

  <symbol id="video" viewBox="0 0 24 24">
    <g fill="none" fill-rule="evenodd">
      <path d="M0 0h24v24H0z"/>
      <path d="M22 3H2C.897 3 0 3.897 0 5v13c0 1.103.897 2 2 2h9v2H7v2h10v-2h-4v-2h9c1.104 0 2-.897 2-2V5c0-1.103-.896-2-2-2zm0 2l-.002 10H2V5h20zM2 18v-1h19.997v1H2z" fill="currentColor" fill-rule="nonzero"/>
      <path fill="currentColor" fill-rule="nonzero" d="M8.999 6v8l8-4z"/>
    </g>
  </symbol>

  <symbol id="photo" viewBox="0 0 24 24">
    <g fill="none" fill-rule="evenodd">
      <path d="M0 0h24v24H0z"/>
      <path d="M14.5 8.999c-1.93 0-3.5 1.57-3.5 3.5 0 1.931 1.57 3.5 3.5 3.5s3.5-1.569 3.5-3.5c0-1.93-1.57-3.5-3.5-3.5zm0 5a1.501 1.501 0 010-3 1.501 1.501 0 010 3z" fill="currentColor" fill-rule="nonzero"/>
      <path d="M20 5.999h-1v-2h-4v2H4c-1.103 0-2 .897-2 2v9c0 1.103.897 2 2 2h16c1.103 0 2-.897 2-2v-9c0-1.103-.897-2-2-2zm-16 11v-9h16l.001 9H4z" fill="currentColor" fill-rule="nonzero"/>
      <path fill="currentColor" fill-rule="nonzero" d="M6 8.999h4v2H6z"/>
    </g>
  </symbol>

  <symbol id="text" viewBox="0 0 24 24">
    <g fill="none" fill-rule="evenodd">
      <path d="M0 0h24v24H0z"/>
      <path fill="currentColor" fill-rule="nonzero" d="M2 3h20v2H2zM2 7h20v2H2zM2 11h20v2H2zM2 15h20v2H2zM2 19h14v2H2z"/>
    </g>
  </symbol>

  <symbol id="quiz" viewBox="0 0 24 24">
    <g fill="none" fill-rule="evenodd">
      <path d="M0 0h24v24H0z"/>
      <path d="M21 3h-3.278c-.347-.595-.984-1-1.722-1H8c-.737 0-1.375.405-1.722 1H3a1 1 0 00-1 1v3.039c0 .916.41 1.77 1.126 2.343l4.179 3.343A6 6 0 0011 14.91V17H9a1 1 0 00-1 1v2H7v2h10v-2h-1v-2a1 1 0 00-1-1h-2v-2.09a5.998 5.998 0 003.695-2.186l4.18-3.344A2.981 2.981 0 0022 7.039V4a1 1 0 00-1-1zm-7 17h-4v-1h4v1zM4.376 7.82A.994.994 0 014 7.039V5h2v4c0 .042.006.083.006.125L4.376 7.82zM12 13c-2.205 0-4-1.794-4-4V4h8v5c0 2.206-1.795 4-4 4zm8-5.961a.996.996 0 01-.375.781l-1.631 1.305c0-.042.006-.083.006-.125V5h2v2.039z" fill="currentColor" fill-rule="nonzero"/>
    </g>
  </symbol>

  <symbol id="download" viewBox="0 0 16 16">
    <path d="M2.7 13.1h10.7v1.3H2.7v-1.3zm8-4L8 11.7 5.3 9.1h2V2.4h1.3v6.7h2.1z" fill="currentColor"/>
  </symbol>

  <symbol id="rocket" viewBox="0 0 23 39">
    <g fill="currentColor" fill-rule="nonzero">
      <path d="M11.5 32.943c-1.513 0-2.776-.553-3.587-.887-.452-.187-.945.147-.911.619l.292 4.151c.017.253.318.383.527.228l1.212-.895a.336.336 0 01.477.081l1.714 2.613a.333.333 0 00.552 0l1.714-2.613a.336.336 0 01.477-.081l1.212.895c.209.155.51.025.527-.228l.292-4.151c.034-.472-.46-.814-.911-.619-.82.334-2.074.887-3.587.887z"/>
      <path d="M22.806 22.708l-3.833-4.023C18.973 5.737 11.531 0 11.531 0S4.017 5.737 4.017 18.685L.184 22.708a.693.693 0 00-.176.582l1.47 9.162c.071.467.566.697.942.443l5.358-3.72s1.653 1.638 3.76 1.638c2.109 0 3.682-1.639 3.682-1.639l5.358 3.72c.367.255.862.025.942-.442l1.478-9.17a.74.74 0 00-.192-.574zm-11.275-8.285c-1.358 0-2.452-1.172-2.452-2.622s1.102-2.623 2.452-2.623c1.357 0 2.451 1.172 2.451 2.623 0 1.45-1.094 2.622-2.451 2.622z"/>
    </g>
  </symbol>

  <symbol id="author" viewBox="0 0 72 72">
    <g fill="none" fill-rule="evenodd">
      <path d="M0 0h72v72H0z"/>
      <path d="M67.341 21.318l-30-15a3 3 0 00-2.685 0l-30 15c-.6.297-1.062.819-1.335 1.386C3.141 23.07 3 23.694 3 24v17.295c0 1.653 1.344 3 3 3s3-1.347 3-3V28.434l6 2.4v14.712c0 1.134.642 2.172 1.659 2.682 5.157 2.574 10.458 5.757 19.341 5.757 8.883 0 14.187-3.183 19.341-5.757A3.007 3.007 0 0057 45.543V30.831l10.116-4.047a2.997 2.997 0 00.225-5.466zM51 43.689l-2.925 1.461c-7.563 3.783-16.59 3.783-24.15 0L21 43.689V33.234l13.884 5.556c.36.144.738.21 1.116.21a2.94 2.94 0 001.116-.213L51 33.231v10.458zm-15-10.92l-22.683-9.075L36 12.357l22.683 11.337L36 32.769zM6 48c-1.656 0-3 1.344-3 3v6a3 3 0 106 0v-6c0-1.656-1.344-3-3-3z" fill="currentColor" fill-rule="nonzero"/>
    </g>
  </symbol>

  <symbol id="home" viewBox="0 0 16 16">
    <path fill="currentColor" d="M6.7 13.7H3.3V8.4h-2l6.7-6 6.7 6h-2v5.3H9.3v-4H6.7z"/>
  </symbol>

  <symbol id="location" viewBox="0 0 24 24">
    <path d="M12 11.1c.4 0 .9-.1 1.2-.3s.7-.5.9-.9c.3-.4.4-.9.4-1.3s-.1-.9-.3-1.2c-.3-.4-.6-.7-1-1-.3-.2-.8-.3-1.2-.3s-.9.1-1.2.3c-.4.3-.7.6-.9 1-.3.3-.4.8-.4 1.2 0 .7.2 1.3.7 1.8s1.1.7 1.8.7zm0-9.5c1.3 0 2.5.3 3.5.9C16.6 3.1 17.4 4 18 5c.6 1.1.9 2.2.9 3.5 0 1-.2 2.1-.7 3.4-.4 1.1-1 2.2-1.7 3.5-.6 1-1.3 2-2.1 3.1-.5.8-1.1 1.5-1.7 2.2l-.7.8-.7-.8c-.6-.7-1.2-1.5-1.7-2.2-.8-1.1-1.5-2.1-2.1-3.1-.8-1.2-1.3-2.4-1.8-3.4-.4-1.3-.7-2.4-.7-3.4 0-1.3.3-2.5.9-3.5.7-1.1 1.5-1.9 2.6-2.5 1-.7 2.2-1 3.5-1z"/>
  </symbol>

  <symbol id="cup" viewBox="0 0 24 24">
    <g fill="none" fill-rule="evenodd">
      <path d="M0 0h24v24H0z"/>
      <path d="M21 3h-3.278c-.347-.595-.984-1-1.722-1H8c-.737 0-1.375.405-1.722 1H3a1 1 0 00-1 1v3.039c0 .916.41 1.77 1.126 2.343l4.179 3.343A6 6 0 0011 14.91V17H9a1 1 0 00-1 1v2H7v2h10v-2h-1v-2a1 1 0 00-1-1h-2v-2.09a5.998 5.998 0 003.695-2.186l4.18-3.344A2.981 2.981 0 0022 7.039V4a1 1 0 00-1-1zm-7 17h-4v-1h4v1zM4.376 7.82A.994.994 0 014 7.039V5h2v4c0 .042.006.083.006.125L4.376 7.82zM12 13c-2.205 0-4-1.794-4-4V4h8v5c0 2.206-1.795 4-4 4zm8-5.961a.996.996 0 01-.375.781l-1.631 1.305c0-.042.006-.083.006-.125V5h2v2.039z" fill="currentColor" fill-rule="nonzero"/>
    </g>
  </symbol>
  

</svg>
