<?xml version="1.0" encoding="utf-8"?>
<!-- Generator: Adobe Illustrator 24.2.1, SVG Export Plug-In . SVG Version: 6.00 Build 0)  -->
<svg version="1.1" id="Capa_1" xmlns="http://www.w3.org/2000/svg" xmlns:xlink="http://www.w3.org/1999/xlink" x="0px" y="0px"
	 viewBox="0 0 24 24" style="enable-background:new 0 0 24 24;" xml:space="preserve">
<g id="_x30_2.-Icon_x2F_01.-Interfaz_x2F_24px_x2F_location_x5F_on">
	<g id="_x2699__xFE0F_Atoms_x2F_Colour_x2F_Grey-Darker_1_" transform="translate(4.500000, 1.000000)">
		<g id="Mask">
			<path id="path-1_1_" d="M7.5,10.1c0.4,0,0.9-0.1,1.2-0.3s0.7-0.5,0.9-0.9C9.9,8.5,10,8,10,7.6S9.9,6.7,9.7,6.4
				C9.4,6,9.1,5.7,8.7,5.4C8.4,5.2,7.9,5.1,7.5,5.1S6.6,5.2,6.3,5.4C5.9,5.7,5.6,6,5.4,6.4C5.1,6.7,5,7.2,5,7.6
				c0,0.7,0.2,1.3,0.7,1.8S6.8,10.1,7.5,10.1z M7.5,0.6c1.3,0,2.5,0.3,3.5,0.9c1.1,0.6,1.9,1.5,2.5,2.5c0.6,1.1,0.9,2.2,0.9,3.5
				c0,1-0.2,2.1-0.7,3.4c-0.4,1.1-1,2.2-1.7,3.5c-0.6,1-1.3,2-2.1,3.1c-0.5,0.8-1.1,1.5-1.7,2.2l-0.7,0.8l-0.7-0.8
				c-0.6-0.7-1.2-1.5-1.7-2.2c-0.8-1.1-1.5-2.1-2.1-3.1C2.2,13.2,1.7,12,1.2,11C0.8,9.7,0.5,8.6,0.5,7.6c0-1.3,0.3-2.5,0.9-3.5
				C2.1,3,2.9,2.2,4,1.6C5,0.9,6.2,0.6,7.5,0.6z"/>
		</g>
	</g>
</g>
</svg>
