<?xml version="1.0" encoding="UTF-8"?>
<svg width="24px" height="24px" viewBox="0 0 24 24" version="1.1" xmlns="http://www.w3.org/2000/svg" xmlns:xlink="http://www.w3.org/1999/xlink">
    <title>Group 7</title>
    <g id="01-Previa" stroke="none" stroke-width="1" fill="none" fill-rule="evenodd">
        <g id="Estilos" transform="translate(-508.000000, -1100.000000)">
            <g id="Group-7" transform="translate(508.000000, 1100.000000)">
                <g id="Frame_-_24px">
                    <rect id="Rectangle" x="0" y="0" width="24" height="24"></rect>
                </g>
                <path d="M14.5,8.999 C12.57,8.999 11,10.569 11,12.499 C11,14.43 12.57,15.999 14.5,15.999 C16.43,15.999 18,14.43 18,12.499 C18,10.569 16.43,8.999 14.5,8.999 Z M14.5,13.999 C13.673,13.999 13,13.327 13,12.499 C13,11.673 13.673,10.999 14.5,10.999 C15.327,10.999 16,11.673 16,12.499 C16,13.327 15.327,13.999 14.5,13.999 Z" id="Shape" fill="#555555" fill-rule="nonzero"></path>
                <path d="M20,5.999 L19,5.999 L19,3.999 L15,3.999 L15,5.999 L4,5.999 C2.897,5.999 2,6.896 2,7.999 L2,16.999 C2,18.102 2.897,18.999 4,18.999 L20,18.999 C21.103,18.999 22,18.102 22,16.999 L22,7.999 C22,6.896 21.103,5.999 20,5.999 Z M4,16.999 L4,7.999 L20,7.999 L20.001,16.999 L4,16.999 Z" id="Shape" fill="#555555" fill-rule="nonzero"></path>
                <rect id="Rectangle" fill="#555555" fill-rule="nonzero" x="6" y="8.999" width="4" height="2"></rect>
            </g>
        </g>
    </g>
</svg>