<?xml version="1.0" encoding="UTF-8"?>
<svg width="82px" height="80px" viewBox="0 0 82 80" version="1.1" xmlns="http://www.w3.org/2000/svg" xmlns:xlink="http://www.w3.org/1999/xlink">
    <title>Group 22</title>
    <defs>
        <path d="M37,0 C57.4345357,0 74,16.117749 74,36 C74,55.882251 57.4345357,72 37,72 C16.5654643,72 0,55.882251 0,36 C0,16.117749 16.5654643,0 37,0 Z M37.5,8 C21.7598846,8 9,20.536027 9,36 C9,51.463973 21.7598846,64 37.5,64 C53.2401154,64 66,51.463973 66,36 C66,20.536027 53.2401154,8 37.5,8 Z" id="path-1"></path>
        <filter x="-9.5%" y="-6.9%" width="118.9%" height="119.4%" filterUnits="objectBoundingBox" id="filter-2">
            <feOffset dx="0" dy="2" in="SourceAlpha" result="shadowOffsetOuter1"></feOffset>
            <feGaussianBlur stdDeviation="2" in="shadowOffsetOuter1" result="shadowBlurOuter1"></feGaussianBlur>
            <feColorMatrix values="0 0 0 0 0   0 0 0 0 0   0 0 0 0 0  0 0 0 0.5 0" type="matrix" in="shadowBlurOuter1"></feColorMatrix>
        </filter>
        <path d="M39.0238262,29.3816615 L47.833908,40.5921472 C48.1751656,41.0263841 48.0997909,41.6550466 47.665554,41.9963042 C47.4893551,42.1347751 47.2717512,42.2100486 47.0476525,42.2100486 L31,42.2100486 C30.4477153,42.2100486 30,41.7623334 30,41.2100486 C30,40.9859499 30.0752735,40.768346 30.2137445,40.5921472 L39.0238262,29.3816615 L39.0238262,29.3816615 Z" id="path-3"></path>
        <filter x="-38.8%" y="-46.0%" width="177.6%" height="219.7%" filterUnits="objectBoundingBox" id="filter-4">
            <feOffset dx="0" dy="2" in="SourceAlpha" result="shadowOffsetOuter1"></feOffset>
            <feGaussianBlur stdDeviation="2" in="shadowOffsetOuter1" result="shadowBlurOuter1"></feGaussianBlur>
            <feColorMatrix values="0 0 0 0 0   0 0 0 0 0   0 0 0 0 0  0 0 0 0.504807692 0" type="matrix" in="shadowBlurOuter1"></feColorMatrix>
        </filter>
    </defs>
    <g id="-01-Previa-" stroke="none" stroke-width="1" fill="none" fill-rule="evenodd">
        <g id="Correcciones-Copy" transform="translate(-2150.000000, -1242.000000)">
            <g id="Group-23" transform="translate(1743.000000, 1030.000000)">
                <g id="Group-22" transform="translate(411.000000, 214.000000)">
                    <g id="Combined-Shape">
                        <use fill="black" fill-opacity="1" filter="url(#filter-2)" xlink:href="#path-1"></use>
                        <use fill="#FFFFFF" fill-rule="evenodd" xlink:href="#path-1"></use>
                    </g>
                    <g id="Triangle" transform="translate(39.023848, 36.105024) rotate(90.000000) translate(-39.023848, -36.105024) ">
                        <use fill="black" fill-opacity="1" filter="url(#filter-4)" xlink:href="#path-3"></use>
                        <use fill="#FFFFFF" fill-rule="evenodd" xlink:href="#path-3"></use>
                    </g>
                </g>
            </g>
        </g>
    </g>
</svg>