<?xml version="1.0" encoding="UTF-8"?>
<svg width="24px" height="24px" viewBox="0 0 24 24" version="1.1" xmlns="http://www.w3.org/2000/svg" xmlns:xlink="http://www.w3.org/1999/xlink">
    <title>Group 15</title>
    <g id="01-Previa" stroke="none" stroke-width="1" fill="none" fill-rule="evenodd">
        <g id="Estilos" transform="translate(-710.000000, -1101.000000)">
            <g id="Group-15" transform="translate(710.000000, 1101.000000)">
                <polygon id="Path" points="0 0 24 0 24 24 0 24"></polygon>
                <path d="M21,3 L17.722,3 C17.375,2.405 16.738,2 16,2 L8,2 C7.263,2 6.625,2.405 6.278,3 L3,3 C2.447,3 2,3.447 2,4 L2,7.039 C2,7.955 2.41,8.809 3.126,9.382 L7.305,12.725 C8.207,13.859 9.51,14.658 11,14.91 L11,17 L9,17 C8.447,17 8,17.447 8,18 L8,20 L7,20 L7,22 L9,22 L15,22 L17,22 L17,20 L16,20 L16,18 C16,17.447 15.553,17 15,17 L13,17 L13,14.91 C14.49,14.658 15.793,13.859 16.695,12.724 L20.875,9.38 C21.59,8.809 22,7.955 22,7.039 L22,4 C22,3.447 21.553,3 21,3 Z M14,20 L10,20 L10,19 L14,19 L14,20 Z M4.376,7.82 C4.137,7.63 4,7.344 4,7.039 L4,5 L6,5 L6,9 C6,9.042 6.006,9.083 6.006,9.125 L4.376,7.82 L4.376,7.82 Z M12,13 C9.795,13 8,11.206 8,9 L8,4 L16,4 L16,9 C16,11.206 14.205,13 12,13 Z M20,7.039 C20,7.344 19.863,7.63 19.625,7.82 L17.994,9.125 C17.994,9.083 18,9.042 18,9 L18,5 L20,5 L20,7.039 Z" id="Shape" fill="#555555" fill-rule="nonzero"></path>
            </g>
        </g>
    </g>
</svg>