<?xml version="1.0" encoding="UTF-8"?>
<svg width="72px" height="72px" viewBox="0 0 72 72" version="1.1" xmlns="http://www.w3.org/2000/svg" xmlns:xlink="http://www.w3.org/1999/xlink">
    <title>Group 6</title>
    <g id="03-About-the-authors" stroke="none" stroke-width="1" fill="none" fill-rule="evenodd">
        <g id="03-Desktop-1440" transform="translate(-684.000000, -232.000000)">
            <g id="Group-10" transform="translate(491.000000, 232.000000)">
                <g id="Group-6" transform="translate(193.000000, 0.000000)">
                    <polygon id="Path" points="0 0 72 0 72 72 0 72"></polygon>
                    <path d="M67.341,21.318 L37.341,6.318 C36.498,5.895 35.502,5.895 34.656,6.318 L4.656,21.318 C4.056,21.615 3.594,22.137 3.321,22.704 C3.141,23.07 3,23.694 3,24 L3,41.295 C3,42.948 4.344,44.295 6,44.295 C7.656,44.295 9,42.948 9,41.295 L9,28.434 L15,30.834 L15,45.546 C15,46.68 15.642,47.718 16.659,48.228 C21.816,50.802 27.117,53.985 36,53.985 C44.883,53.985 50.187,50.802 55.341,48.228 C56.358,47.715 57,46.68 57,45.543 L57,30.831 L67.116,26.784 C68.211,26.346 68.949,25.305 68.997,24.123 C69.048,22.944 68.397,21.849 67.341,21.318 Z M51,43.689 L48.075,45.15 C40.512,48.933 31.485,48.933 23.925,45.15 L21,43.689 L21,33.234 L34.884,38.79 C35.244,38.934 35.622,39 36,39 C36.378,39 36.756,38.934 37.116,38.787 L51,33.231 L51,43.689 L51,43.689 Z M36,32.769 L13.317,23.694 L36,12.357 L58.683,23.694 L36,32.769 Z" id="Shape" fill="#555555" fill-rule="nonzero"></path>
                    <path d="M6,48 C4.344,48 3,49.344 3,51 L3,57 C3,58.659 4.344,60 6,60 C7.656,60 9,58.659 9,57 L9,51 C9,49.344 7.656,48 6,48 Z" id="Path" fill="#555555" fill-rule="nonzero"></path>
                </g>
            </g>
        </g>
    </g>
</svg>