<?xml version="1.0" encoding="UTF-8"?>
<svg width="18px" height="20px" viewBox="0 0 18 20" version="1.1" xmlns="http://www.w3.org/2000/svg" xmlns:xlink="http://www.w3.org/1999/xlink">
    <title>Path</title>
    <g id="27-Unidad-Final-Quiz" stroke="none" stroke-width="1" fill="none" fill-rule="evenodd">
        <g id="27-Desktop-1440-Last-questión" transform="translate(-288.000000, -897.000000)" fill="#13B82B" fill-rule="nonzero">
            <path d="M305.207813,912.970313 C305.559375,912.675 305.990625,912.215625 305.990625,911.498438 C305.990625,910.85625 305.723438,910.429688 305.479688,910.134375 C305.451563,910.078125 305.428125,910.026563 305.404688,909.975 L305.395313,909.923438 C305.3625,909.759375 305.395313,909.590625 305.489063,909.454688 C305.648438,909.220313 305.760938,908.878125 305.760938,908.25 C305.760938,907.70625 305.535938,907.3875 305.30625,907.1625 C305.1,906.960938 305.020313,906.576563 305.114063,906.304688 C305.339063,905.653125 305.123438,904.973438 304.729688,904.532813 C304.2375,903.979688 303.778125,903.914063 302.554688,903.984375 C301.710938,904.035938 299.953125,904.307813 298.795313,904.490625 C298.321875,904.565625 297.909375,904.63125 297.782813,904.640625 C297.1875,904.701563 297.070313,904.640625 297.014063,904.410938 C296.990625,904.3125 297.103125,904.0875 297.24375,903.801563 C297.43125,903.421875 297.689063,902.901563 297.923438,902.123438 C298.396875,900.567188 298.345313,898.879688 297.796875,897.895313 C297.539063,897.43125 297.103125,897 296.564063,897 C296.025,897 295.471875,897.1125 295.25625,897.370313 C295.096875,897.557813 295.148438,897.914063 294.965625,898.626563 C294.820313,899.207813 294.6375,900.075 294.403125,900.595313 C294.051563,901.373438 292.542188,902.709375 291.73125,903.426563 C291.539063,903.595313 291.375,903.740625 291.257813,903.853125 C290.85,904.232813 290.432813,904.842188 290.0625,905.385938 C289.809375,905.751563 289.575,906.098438 289.420313,906.253125 C289.0875,906.585938 288.642188,906.764063 288.375,906.764063 C288.16875,906.764063 288,906.932813 288,907.139063 L288,914.615625 C288,914.83125 288.173438,915.004688 288.389063,915.004688 C290.053125,915.004688 290.75625,915.276563 291.501563,915.557813 C292.073438,915.778125 292.66875,916.003125 293.676563,916.125 C295.195313,916.3125 297.154688,916.504688 298.954688,916.504688 C299.910938,916.504688 300.825,916.410938 301.607813,916.321875 C303.060938,916.153125 304.617188,915.815625 305.132813,914.5875 C305.325,914.132813 305.235938,913.7625 305.109375,913.476563 C305.090625,913.439063 305.076563,913.396875 305.071875,913.354688 C305.04375,913.2 305.1,913.059375 305.207813,912.970313 Z" id="Path"></path>
        </g>
    </g>
</svg>