<?xml version="1.0" encoding="UTF-8"?>
<svg width="23px" height="39px" viewBox="0 0 23 39" version="1.1" xmlns="http://www.w3.org/2000/svg" xmlns:xlink="http://www.w3.org/1999/xlink">
    <title>Group 4</title>
    <g id="02-Portada" stroke="none" stroke-width="1" fill="none" fill-rule="evenodd">
        <g id="02-Desktop-1440" transform="translate(-240.000000, -756.000000)" fill="#555555" fill-rule="nonzero">
            <g id="Group-4" transform="translate(240.000000, 756.000000)">
                <path d="M11.5,32.943356 C9.98660157,32.943356 8.72404267,32.3897918 7.91299489,32.0560251 C7.46148376,31.8687901 6.96816604,32.2025568 7.00161131,32.6747145 L7.29425741,36.8264463 C7.31098005,37.0788065 7.61198747,37.2090569 7.8210204,37.0543845 L9.0334114,36.158913 C9.18391512,36.0449439 9.40967068,36.0856471 9.51000649,36.2403195 L11.2240765,38.8534683 C11.3494963,39.0488439 11.6505037,39.0488439 11.7759235,38.8534683 L13.4899935,36.2403195 C13.5903293,36.0856471 13.8160849,36.0449439 13.9665886,36.158913 L15.1789796,37.0543845 C15.3880125,37.2090569 15.68902,37.0788065 15.7057426,36.8264463 L15.9983887,32.6747145 C16.031834,32.2025568 15.5385162,31.8606495 15.0870051,32.0560251 C14.267596,32.3897918 13.0133984,32.943356 11.5,32.943356 L11.5,32.943356 Z" id="Path"></path>
                <path d="M22.8059583,22.7084715 L18.9730369,18.6847041 C18.9730369,5.73653196 11.530781,0 11.530781,0 C11.530781,0 4.01665783,5.73653196 4.01665783,18.6847041 L0.183736343,22.7084715 C0.0400017876,22.8559823 -0.0238802372,23.0772486 0.00806077521,23.2903198 L1.47734734,32.4523808 C1.54921462,32.9194984 2.04430031,33.1489597 2.41960721,32.8949133 L7.77771203,29.1743625 C7.77771203,29.1743625 9.43065942,30.8133717 11.5387662,30.8133717 C13.6468731,30.8133717 15.2199679,29.1743625 15.2199679,29.1743625 L20.5780727,32.8949133 C20.9453944,33.1489597 21.4404801,32.9194984 21.5203326,32.4523808 L22.9976044,23.2821247 C23.0135749,23.0690535 22.9496929,22.8559823 22.8059583,22.7084715 L22.8059583,22.7084715 Z M11.530781,14.4232804 C10.173288,14.4232804 9.07930829,13.2513888 9.07930829,11.8008657 C9.07930829,10.3503427 10.1812732,9.17845113 11.530781,9.17845113 C12.888274,9.17845113 13.9822537,10.3503427 13.9822537,11.8008657 C13.9822537,13.2513888 12.888274,14.4232804 11.530781,14.4232804 Z" id="Shape"></path>
            </g>
        </g>
    </g>
</svg>