<?xml version="1.0" encoding="UTF-8"?>
<svg width="54px" height="47px" viewBox="0 0 54 47" version="1.1" xmlns="http://www.w3.org/2000/svg" xmlns:xlink="http://www.w3.org/1999/xlink">
    <title>02_University_vertical_RGB</title>
    <g id="Symbols" stroke="none" stroke-width="1" fill="none" fill-rule="evenodd" opacity="0.85">
        <g id="Header-Desktop" transform="translate(-30.000000, -27.000000)" fill-rule="nonzero">
            <g id="02_University_vertical_RGB" transform="translate(30.000000, 27.000000)">
                <path d="M0.9,40.5 L2.11598335,40.5 L2.11598335,44.4700198 C2.11598335,45.3025273 2.70037461,45.7697721 3.59494277,45.7697721 C4.48951093,45.7697721 5.08401665,45.2994054 5.08401665,44.4616947 L5.08401665,40.5 L6.3,40.5 L6.3,44.4700198 C6.3,45.8571853 5.21550468,46.8 3.60280957,46.8 C1.99011446,46.8 0.9,45.8561447 0.9,44.4689792 L0.9,40.5 Z" id="Path" fill="#00338D"></path>
                <path d="M8.1,40.5 L9.30148057,40.5 L11.8054904,44.1384008 C12.0082898,44.4532804 12.1918163,44.7790718 12.3551511,45.1141441 L12.3740284,45.1141441 C12.3740284,45.1141441 12.3085133,44.5109189 12.3085133,44.1384008 L12.3085133,40.5 L13.5,40.5 L13.5,46.8 L12.3085133,46.8 L9.80339297,43.1711238 C9.60201085,42.8554682 9.41996679,42.528969 9.25817397,42.1932639 L9.23929673,42.1932639 C9.23929673,42.1932639 9.30481184,42.7975475 9.30481184,43.1700655 L9.30481184,46.7989417 L8.1,46.7989417 L8.1,40.5 Z" id="Path" fill="#00338D"></path>
                <polygon id="Path" fill="#00338D" points="15.3 40.5 16.2 40.5 16.2 46.8 15.3 46.8"></polygon>
                <path d="M17.1,40.5 L18.4551514,40.5 L19.9766433,44.6082815 C20.1139032,44.9723333 20.2302253,45.5311104 20.2406942,45.5311104 L20.260469,45.5311104 C20.2697747,45.5311104 20.38726,44.9723333 20.5233567,44.6082815 L22.0541544,40.5 L23.4,40.5 L20.8746492,46.8 L19.626514,46.8 L17.1,40.5 Z" id="Path" fill="#00338D"></path>
                <polygon id="Path" fill="#00338D" points="24.3 40.5 27.7667027 40.5 27.7667027 41.4854335 25.3498378 41.4854335 25.3498378 43.1355847 27.2957838 43.1355847 27.2957838 44.1210181 25.3498378 44.1210181 25.3498378 45.8145665 27.9 45.8145665 27.9 46.8 24.3 46.8"></polygon>
                <path d="M29.7,40.5 L31.6157428,40.5 C32.2593126,40.5 32.5526608,40.5529145 32.813082,40.6777927 C33.4117517,40.9614144 33.7839246,41.5646397 33.7839246,42.3985721 C33.7839246,43.1531329 33.4067627,43.8537208 32.7791574,44.1204099 L32.7791574,44.1384008 C32.857211,44.2328562 32.9242156,44.3369707 32.978714,44.4484798 L34.2,46.8 L32.9956763,46.8 L31.8162971,44.4474215 L30.7786031,44.4474215 L30.7786031,46.7989417 L29.7,46.7989417 L29.7,40.5 Z M31.7504435,43.4536872 C32.3281596,43.4536872 32.6873614,43.0896355 32.6873614,42.459953 C32.6873614,41.8567277 32.4449002,41.4842096 31.5997783,41.4842096 L30.7796009,41.4842096 L30.7796009,43.4536872 L31.7504435,43.4536872 Z" id="Shape" fill="#00338D"></path>
                <path d="M35.7611056,45.1343905 C35.7611056,45.1343905 36.4849602,45.7781696 37.4239542,45.7781696 C37.9315488,45.7781696 38.3920817,45.537648 38.3920817,45.0402289 C38.3920817,43.9502055 35.2445468,44.1395523 35.2445468,42.2686013 C35.2445468,41.2553402 36.2025896,40.5 37.4799801,40.5 C38.7954681,40.5 39.472261,41.1529905 39.472261,41.1529905 L38.9456175,42.0536671 C38.9456175,42.0536671 38.3069223,41.5214491 37.4710159,41.5214491 C36.910757,41.5214491 36.4625498,41.822357 36.4625498,42.2512019 C36.4625498,43.3320138 39.6,43.0699988 39.6,45.0146415 C39.6,45.9838923 38.7921066,46.7996187 37.4015438,46.7996187 C36.5436576,46.8122106 35.7155512,46.5124479 35.1,45.9664929 L35.7611056,45.1343905 Z" id="Path" fill="#00338D"></path>
                <polygon id="Path" fill="#00338D" points="40.5 40.5 41.4 40.5 41.4 46.8 40.5 46.8"></polygon>
                <polygon id="Path" fill="#00338D" points="44.4149729 41.4842096 42.3 41.4842096 42.3 40.5 47.7 40.5 47.7 41.4852679 45.5861094 41.4852679 45.5861094 46.8 44.4149729 46.8"></polygon>
                <path d="M50.7205479,44.1637998 L48.6,40.5 L49.9122096,40.5 L50.9092317,42.354124 C51.1161406,42.744633 51.2876712,43.2007559 51.2962478,43.2007559 L51.3198332,43.2007559 C51.3198332,43.2007559 51.4988684,42.7478078 51.7057772,42.354124 L52.6899345,40.5 L54,40.5 L51.87838,44.1648581 L51.87838,46.8 L50.7205479,46.8 L50.7205479,44.1637998 Z" id="Path" fill="#00338D"></path>
                <path d="M4.49993518,0 C6.32027744,0 7.96131718,1.09671812 8.65763504,2.77861818 C9.35395289,4.46051824 8.96837536,6.39626912 7.68074484,7.68299125 C6.39311433,8.96971338 4.45709194,9.35392459 2.7756839,8.65641977 C1.09427585,7.95891495 -0.00128321505,6.31710142 0,4.49675948 C0.0029198985,2.01323824 2.0164127,0.0011659026 4.49993518,0 L4.49993518,0 Z" id="Path" fill="#0097DC"></path>
                <rect id="Rectangle" fill="#00338D" x="0.9" y="11.7" width="7.2" height="23.4"></rect>
                <path d="M34.2,23.4767897 L34.2,23.3459227 C34.1752852,16.4143004 29.56974,10.8 22.05,10.8 L22.05,10.8 C14.5281109,10.8 9.92578933,16.4088927 9.9,23.3459227 L9.9,23.4767897 C9.9,31.0887039 15.7552534,36 23.075126,36 C26.8812019,36 30.7356328,34.2814249 33.0781639,31.2855451 L28.0965243,27.6082918 C26.7823428,29.1581459 25.1243035,30.4008412 22.7334173,30.4008412 C19.9030379,30.4008412 17.8044309,28.5827639 17.2198726,25.7837253 L34.00658,25.7837253 C34.1353436,25.0215833 34.2,24.2498725 34.2,23.4767897 L34.2,23.4767897 Z M22.2401963,20.2581116 L17.5433139,20.2581116 C17.9924781,18.3935279 19.499005,16.7052361 22.2401963,16.7052361 C24.9813876,16.7052361 26.48684,18.3935279 26.9360042,20.2581116 L22.2401963,20.2581116 Z" id="Shape" fill="#00338D"></path>
            </g>
        </g>
    </g>
</svg>